<?xml version="1.0" encoding="utf-8"?>
<!DOCTYPE svg PUBLIC "-//W3C//DTD SVG 1.1//EN" "http://www.w3.org/Graphics/SVG/1.1/DTD/svg11.dtd">
<svg version="1.1" xmlns="http://www.w3.org/2000/svg" xmlns:xlink="http://www.w3.org/1999/xlink" x="0px" y="0px" viewBox="0 0 256 256" enable-background="new 0 0 256 256" xml:space="preserve">
<g><g><g><path fill="#000000" d="M116.8,10.3C75.6,14.6,40,39.1,22.2,75.6c-5.8,11.9-9.2,22.9-11.2,35.8c-1.2,8.2-1.2,24.9,0,33.3c5.2,34.7,24.8,64.8,54.3,83.5c9.6,6.1,22.3,11.5,33.7,14.4c10.6,2.7,17,3.4,29.1,3.4c12.1,0,18.3-0.7,29.1-3.4c33.3-8.4,61.7-31.3,76.8-62.1c5.8-11.8,9.2-22.8,11.2-35.8c1.2-8.2,1.2-24.9,0-33.3c-4-26-15.3-48.5-33.6-66.8c-9.9-9.9-19.2-16.6-31.6-22.6c-11.3-5.5-22.8-9.1-35-10.9C138.5,10.1,122.9,9.7,116.8,10.3z M138.7,19.3c43,4.2,79.6,33.6,93.1,74.8c21.8,66.5-23.5,135.8-93.3,142.8c-50.6,5.1-98.4-26.2-114.3-74.8C5.4,104.5,36.6,43,94,24.2C108.8,19.4,123.5,17.8,138.7,19.3z"/><path fill="#000000" d="M104.4,94.7L81,118.1h47h47l-23.4-23.4c-12.8-12.9-23.5-23.4-23.6-23.4S117.2,81.9,104.4,94.7z"/><path fill="#000000" d="M104.4,160.8l23.4,23.4L151,161c12.8-12.8,23.3-23.3,23.3-23.4c0-0.1-21-0.1-46.6-0.1H81L104.4,160.8z"/></g></g></g>
</svg>